<svg width="1000" height="515" viewBox="0 0 1000 515" fill="none" xmlns="http://www.w3.org/2000/svg">
<path d="M483.88 103.76L542.82 125.12L484.07 0L359.14 58.55L412.93 78L412.55 78.95C408.35 89.63 404.73 97.64 403.2 99.36C401.1 101.84 398.24 105.27 381.84 106.42C377.83 106.61 374.59 106.8 371.35 106.8H364.1C358.57 106.8 352.27 107.18 340.26 108.9C316.99 112.33 299.25 120.15 283.23 134.08C269.69 145.71 256.34 160.78 249.28 192.06C244.32 214.18 247.56 236.12 259.01 257.29C266.26 270.45 282.47 291.05 319.66 313.75C336.44 323.86 347.89 331.87 353.42 339.69C357.04 345.03 358.57 350.94 357.62 355.71C357.24 357.81 356.09 360.48 353.42 362.39C349.22 365.25 340.83 367.54 331.87 369.83L331.3 370.02C317.76 373.83 300.97 378.41 287.43 387.19C266.83 400.54 260.73 411.03 242.8 490.57L241.66 495.34L309.18 514.6L310.51 509.45C316.8 483.7 321.95 468.63 325.58 464.63C329.59 460.05 331.87 458.15 342.17 454.9C344.27 454.14 346.37 453.57 348.46 452.99L351.13 452.23C364.1 448.42 376.5 444.79 394.81 435.64C420.37 423.24 438.49 392.34 441.92 355.34C445.73 316.05 431.43 294.69 415.6 277.33C404.73 265.5 357.05 234.8 350.18 230.79C341.79 225.83 331.87 217.44 332.63 205.23C333.2 195.69 343.5 191.5 346.17 190.93C348.27 190.55 351.7 190.17 357.42 189.6H357.99C365.81 188.84 377.44 187.69 394.04 185.4C425.89 180.63 443.06 165.37 448.97 158.89C469.19 136.96 479.3 115.59 483.49 104.72L483.87 103.77L483.88 103.76ZM691.01 218.39H758.91V439.07H691.01V218.39ZM725.15 129.13C702.83 129.13 685.48 146.49 685.48 168.8C685.48 191.11 703.22 208.47 725.15 208.47C747.08 208.47 764.82 190.73 764.82 168.8C764.82 146.87 747.08 129.13 725.15 129.13ZM892.23 224.69C877.35 224.69 863.24 227.55 850.08 233.46L848.75 234.03V218.58H779.32V485.79H848.75V430.48L850.08 431.05C863.05 436.77 877.35 439.82 892.23 439.82C951.74 439.82 999.99 391.57 999.99 332.06C999.99 272.55 951.54 224.68 892.23 224.68V224.69ZM892.23 375.56C868.58 375.56 848.74 355.72 848.74 332.07C848.74 308.42 869.15 288.58 892.23 288.58C915.31 288.58 935.72 308.8 935.72 332.07C935.72 355.34 915.31 375.56 892.23 375.56ZM161.16 326.16C161.16 351.15 139.8 372.13 114.62 372.13C89.44 372.13 67.89 351.15 67.89 326.16V218.78H0V326.16C0 388.53 51.31 439.07 114.44 439.07C177.57 439.07 228.88 388.34 228.88 326.16V218.78H161.17V326.16H161.16Z" fill="#FFFFFF"></path>
<path d="M601.56 284.76H525.46V218.58H457.56V438.87H525.46V352.66H601.56V438.87H669.46V218.19H601.56V284.75V284.76Z" fill="#FFFFFF"></path>
</svg>